<?xml version="1.0" encoding="utf-8"?>
<!-- Generator: Adobe Illustrator 16.2.1, SVG Export Plug-In . SVG Version: 6.00 Build 0)  -->
<!DOCTYPE svg PUBLIC "-//W3C//DTD SVG 1.1//EN" "http://www.w3.org/Graphics/SVG/1.1/DTD/svg11.dtd">
<svg version="1.1" id="Layer_1" xmlns="http://www.w3.org/2000/svg" xmlns:xlink="http://www.w3.org/1999/xlink" x="0px" y="0px"
	 width="435.833px" height="413.333px" viewBox="0 0 435.833 413.333" enable-background="new 0 0 435.833 413.333"
	 xml:space="preserve">
<g id="GAlKBl_1_">
	<g>
		<path fill-rule="evenodd" clip-rule="evenodd" fill="#BDC6D3" d="M7.971,145.89c9.878,0.003,19.759,0.093,29.634-0.092
			c1.314-0.025,1.767,0.535,2.38,1.183c3.051,3.226,6.635,6.017,9.54,9.234c7.232,8.008,15.623,14.806,22.771,22.884
			c3.773,4.264,7.783,7.428,14.812,7.128c18.443-0.786,36.95,0.113,55.426-0.085c10.678-0.115,21.355-0.422,32.649,0.04
			c-3.585-10.927-6.938-21.384-10.45-31.787c-4.461-13.216-9.044-26.391-13.589-39.579c-7.468-21.676-15.02-43.325-22.398-65.032
			c-4.751-13.979-9.26-28.042-13.859-42.073c-0.589-1.796-1.168-3.264,2.009-3.197c13.036,0.276,26.076,0.308,39.116,0.343
			c3.132,0.009,4.713,1.333,6.374,4.139c7.652,12.933,15.81,25.566,23.678,38.372c7.775,12.654,15.363,25.423,23.138,38.077
			c7.868,12.806,15.911,25.504,23.79,38.304c9.733,15.813,19.371,31.687,29.064,47.525c2.192,3.582,4.271,7.247,6.707,10.658
			c2.847,3.986,7.459,2.597,11.051,2.277c6.417-0.572,12.785,0.074,19.178-0.178c13.016-0.513,26.074,0.103,39.115,0.098
			c19.591-0.007,39.188,0.064,58.771-0.351c6.726-0.142,13.205-0.507,19.518,2.518c7.668,3.673,13.061,15.93,10.215,24.044
			c-4.241,12.092-10.012,15.763-22.973,15.667c-19.922-0.148-39.848,0.083-59.772,0.17c-14.318,0.063-28.638,0.146-42.956,0.234
			c-9.214,0.057-18.431,0.298-27.638,0.083c-2.275-0.053-2.817,1.33-3.507,2.5c-11.653,19.737-23.216,39.529-34.793,59.312
			c-17.418,29.763-34.736,59.583-52.305,89.255c-5.304,8.958-10.96,17.714-15.81,26.932c-1.792,3.407-5.034,3.253-7.741,3.147
			c-13.369-0.523-26.748,0.852-40.28-0.287c7.317-23.12,14.636-46.139,21.885-69.18c8.012-25.467,15.92-50.967,23.955-76.428
			c3.386-10.729,6.939-21.404,10.51-32.073c0.686-2.041,1.046-3.293-1.898-3.239c-12.653,0.228-25.311,0.367-37.966,0.457
			c-5.77,0.041-11.524-0.289-17.314-0.112c-11.528,0.35-23.079,0.146-34.617-0.053c-2.167-0.038-3.377,0.954-4.656,2.229
			c-11.111,11.07-22.76,21.67-33.044,33.46c-4.169,4.78-8.112,5.456-13.415,5.37c-7.874-0.129-15.754,0.036-23.779,0.076
			c2.038-6.007,4.07-12.102,6.168-18.171c4.73-13.68,9.425-27.371,14.3-40.998c0.954-2.668-0.306-4.688-1.115-6.816
			c-6.771-17.805-13.652-35.568-20.48-53.352c-0.215-0.558-0.206-1.202-0.3-1.805C7.369,146.442,7.67,146.166,7.971,145.89z"/>
	</g>
</g>
<g>
</g>
<g>
</g>
<g>
</g>
<g>
</g>
<g>
</g>
<g>
</g>
<g>
</g>
<g>
</g>
<g>
</g>
<g>
</g>
<g>
</g>
<g>
</g>
<g>
</g>
<g>
</g>
<g>
</g>
</svg>
