<?xml version="1.0" encoding="utf-8"?>
<!-- Generator: Adobe Illustrator 16.1.0, SVG Export Plug-In . SVG Version: 6.00 Build 0)  -->
<!DOCTYPE svg PUBLIC "-//W3C//DTD SVG 1.1//EN" "http://www.w3.org/Graphics/SVG/1.1/DTD/svg11.dtd">
<svg version="1.1" id="Layer_1" xmlns="http://www.w3.org/2000/svg" xmlns:xlink="http://www.w3.org/1999/xlink" x="0px" y="0px"
	 width="702px" height="1128px" viewBox="851 43 702 1128" enable-background="new 851 43 702 1128" xml:space="preserve">
<title>orange pin</title>
<title>Layer 1</title>
<linearGradient id="SVGID_1_" gradientUnits="userSpaceOnUse" x1="1197.1753" y1="1155.8789" x2="1197.1753" y2="64.3521">
	<stop  offset="0" style="stop-color:#A71D46"/>
	<stop  offset="1" style="stop-color:#EC4C7D"/>
</linearGradient>
<path fill="url(#SVGID_1_)" d="M1534.377,389.346c-1.682-70.238-21.754-124.086-50.9-169.667
	c-27.922-43.67-64.661-80.726-112.098-108.466c-58.054-33.946-139.918-56.187-227.233-43.023
	c-106.792,16.101-186.383,77.369-233.898,152.095c-28.89,45.434-48.925,101.001-50.294,170.273
	c-1.402,70.898,20.66,125.556,47.87,172.696c13.609,23.576,25.831,47.574,39.993,70.291
	c42.425,68.052,88.276,132.823,127.856,202.995c53.361,94.602,97.416,196.679,122.403,319.337
	c36.149-186.095,118.69-321.903,206.63-455.074c29.527-44.706,58.945-89.39,82.414-138.156
	c12.021-24.982,25.531-48.37,33.928-76.351C1529.35,458.657,1535.242,425.332,1534.377,389.346z M1197.175,588.116
	c-113.771,0-206-92.229-206-206s92.229-206,206-206c113.77,0,206,92.229,206,206S1310.945,588.116,1197.175,588.116z"/>
</svg>
