<?xml version="1.0" encoding="utf-8"?>
<!-- Generator: Adobe Illustrator 16.2.1, SVG Export Plug-In . SVG Version: 6.00 Build 0)  -->
<!DOCTYPE svg PUBLIC "-//W3C//DTD SVG 1.1//EN" "http://www.w3.org/Graphics/SVG/1.1/DTD/svg11.dtd">
<svg version="1.1" id="Layer_1" xmlns="http://www.w3.org/2000/svg" xmlns:xlink="http://www.w3.org/1999/xlink" x="0px" y="0px"
	 width="154px" height="189.143px" viewBox="0 0 154 189.143" enable-background="new 0 0 154 189.143" xml:space="preserve">
<g>
	<g>
		<path d="M16.671,172.474l-1.98,10.008H7.333l9.165-41.648h8.988l8.315,41.648h-7.383l-1.941-10.008H16.671z M23.759,166.592
			l-1.526-9.021c-0.444-2.608-0.995-6.663-1.395-9.474h-0.16c-0.454,2.833-1.079,7.004-1.538,9.492l-1.639,9.002H23.759z"/>
		<path d="M58.048,139.724v34.128c0,2.71,0.138,6.028,0.254,8.63h-6.521l-0.427-3.472h-0.16c-1.093,2.143-3.471,3.974-6.296,3.974
			c-6.236,0-9.329-6.853-9.329-15.52c0-10.537,4.621-15.659,9.628-15.659c2.61,0,4.331,1.281,5.176,3.12h0.128v-15.202H58.048z
			 M50.501,163.874c0-0.542,0-1.2-0.108-1.789c-0.292-2.054-1.393-3.92-3.16-3.92c-3.001,0-4.121,4.362-4.121,9.442
			c0,5.85,1.596,9.191,4.012,9.191c1.13,0,2.419-0.585,3.117-3.042c0.174-0.481,0.261-1.142,0.261-1.907V163.874z"/>
		<path d="M73.584,182.984c-6.919,0-11.291-5.566-11.291-15.514c0-10.848,5.601-15.665,11.46-15.665
			c6.869,0,11.168,5.827,11.168,15.493c0,12.422-6.738,15.685-11.272,15.685H73.584z M73.731,177.226
			c2.866,0,3.595-5.403,3.595-9.882c0-4.245-0.729-9.786-3.718-9.786c-3.189,0-3.86,5.541-3.86,9.786c0,5.13,0.85,9.882,3.92,9.882
			H73.731z"/>
		<path d="M89.127,139.724h7.532v15.723h0.121c1.482-2.314,3.462-3.641,6.33-3.641c5.686,0,8.546,6.431,8.546,14.829
			c0,10.647-4.271,16.349-9.775,16.349c-2.644,0-4.396-1.167-5.971-4.111h-0.154l-0.422,3.609h-6.456
			c0.106-2.508,0.249-5.92,0.249-8.63V139.724z M96.659,171.711c0,0.744,0.133,1.457,0.294,1.924
			c0.749,2.533,2.042,3.162,3.062,3.162c2.914,0,4.104-3.683,4.104-9.584c0-5.348-1.263-9.048-4.133-9.048
			c-1.432,0-2.634,1.557-3.056,3.213c-0.138,0.524-0.271,1.329-0.271,1.907V171.711z"/>
		<path d="M122.093,169.813c0.087,5.471,2.977,7.25,6.545,7.25c2.284,0,4.23-0.501,5.667-1.05l1.026,5.399
			c-2.004,0.863-5.089,1.396-8.059,1.396c-8.097,0-12.494-5.496-12.494-14.91c0-10.089,5.104-16.134,11.806-16.134
			c6.468,0,10.053,5.336,10.053,14.105c0,1.984-0.092,3.104-0.232,3.989L122.093,169.813z M129.705,164.52
			c0.024-4.246-1.205-7.229-3.597-7.229c-2.745,0-3.896,3.993-3.983,7.229H129.705z"/>
		<polygon points="88.451,3.583 136.636,3.583 136.636,118.538 		"/>
		<polygon points="54.488,3.583 6.249,3.583 6.249,118.538 		"/>
		<polygon points="71.457,45.945 102.173,118.538 82.043,118.538 72.845,95.414 50.374,95.414 		"/>
	</g>
	<path d="M144.548,3.377c2.467,0,4.447,1.995,4.447,4.461c0,2.512-1.979,4.511-4.469,4.511c-2.506,0-4.517-1.999-4.517-4.511
		c0-2.466,2.011-4.461,4.517-4.461H144.548z M144.526,4.135c-1.977,0-3.576,1.658-3.576,3.724c0,2.079,1.599,3.732,3.598,3.732
		c1.965,0.021,3.549-1.654,3.549-3.732c0-2.066-1.584-3.724-3.549-3.724H144.526z M143.7,10.454h-0.893V5.476
		c0.422-0.064,0.837-0.144,1.497-0.144c0.802,0,1.296,0.161,1.618,0.402c0.285,0.215,0.442,0.559,0.442,1.041
		c0,0.636-0.42,1.044-0.961,1.185v0.039c0.442,0.081,0.722,0.479,0.821,1.222c0.116,0.777,0.22,1.073,0.29,1.234H145.6
		c-0.118-0.161-0.217-0.617-0.318-1.272c-0.102-0.604-0.437-0.842-1.058-0.842H143.7V10.454z M143.7,7.64h0.546
		c0.654,0,1.195-0.21,1.195-0.787c0-0.442-0.324-0.841-1.159-0.841c-0.261,0-0.437,0-0.582,0.021V7.64z"/>
</g>
</svg>
